<svg id="Layer_1" data-name="Layer 1" xmlns="http://www.w3.org/2000/svg" xmlns:xlink="http://www.w3.org/1999/xlink" viewBox="0 0 375 375"><defs><style>.cls-1{fill:none;}.cls-2{clip-path:url(#clip-path);}.cls-3{fill:#fff;}.cls-4{fill:#424242;}</style><clipPath id="clip-path" transform="translate(0 8.04)"><rect class="cls-1" y="-8.04" width="375" height="375"/></clipPath></defs><g class="cls-2"><rect class="cls-3" width="375" height="375"/></g><g class="cls-2"><rect class="cls-3" width="375" height="375"/></g><g class="cls-2"><rect class="cls-3" width="375" height="375"/><path class="cls-4" d="M185.78,89.18h54.44v28.95H185.78Zm1.72,57.89c-.58,0-1.15,0-1.72,0v29c.57,0,1.14,0,1.72,0a32.39,32.39,0,1,1,0,64.77h-1.72v29h1.72a61.34,61.34,0,0,0,0-122.67Zm-61.26,93.72h49.89v29H126.24Zm28.87-84.48A61.32,61.32,0,0,0,126.18,207c0,.23,0,.45,0,.68v.69h28.94a32.45,32.45,0,0,1,21-30.33V148.13a60.82,60.82,0,0,0-21,8.21Zm-28.94,16.34a71.23,71.23,0,0,1,28.94-27.42v-27.1h21V89.18h-50Z" transform="translate(0 8.04)"/></g></svg>